<svg xmlns="http://www.w3.org/2000/svg" width="896" height="288" viewBox="0 0 896 288" fill="none">
  <style>
    * {
      transform-origin: center;
      transform-box: fill-box;
    }
    .animate-fade-in {
      animation: fade-in 0.64s cubic-bezier(0, 0, 0.2, 1) forwards;
    }
    .animate-fade-in-bottom {
      animation: fade-in-bottom 0.64s cubic-bezier(0, 0, 0.2, 1) forwards;
    }
    .animate-fade-in-right {
      animation: fade-in-right 0.64s cubic-bezier(0, 0, 0.2, 1) forwards;
    }
    .title {
      opacity: 0;
      animation-delay: 0.4s;
    }
    @keyframes fade-in {
      from {
        opacity: 0;
      }
      to {
        opacity: 1;
      }
    }
    @keyframes fade-in-bottom {
      from {
        opacity: 0;
        transform: translate3d(0, -20px, 0);
      }
      to {
        opacity: 1;
        transform: translate3d(0, 0, 0);
      }
    }
  </style>
  <g clip-path="url(#clip0_1_2)">
<!--#region background-->
    <rect width="896" height="288" fill="url(#paint0_linear_1_2)"/>
    <mask id="mask0_1_2" style="mask-type: alpha" maskUnits="userSpaceOnUse" x="0" y="0" width="896" height="288">
      <rect width="896" height="288" fill="#292861"/>
    </mask>
    <g mask="url(#mask0_1_2)">
      <path d="M32.5001 0L32.5001 288M64.5001 0L64.5001 288M96.5001 0L96.5001 288M128.5 0L128.5 288M160.5 0L160.5 288M192.5 0L192.5 288M224.5 0L224.5 288M256.5 0V288M288.5 0V288M320.5 0V288M352.5 0V288M384.5 0V288M416.5 0V288M448.5 0V288M480.5 0V288M512.5 0V288M544.5 0V288M576.5 0V288M608.5 0V288M640.5 0V288M672.5 0V288M704.5 0V288M736.5 0V288M768.5 0V288M800.5 0V288M832.5 0V288M864.5 0V288M0 31.5H896M0 63.5H896M0 95.5H896M0 127.5H896M0 159.5H896M0 191.5H896M0 223.5H896M0 255.5H896" stroke="black" stroke-opacity="0.07" stroke-dasharray="5 5"/>
    </g>
<!--#endregion-->
<!--#region title-->
    
    <g class="animate-fade-in-bottom title">
      <path d="M226.1,101.9h10.8v51.2h-10.8V101.9z M243.8,101.9h9.4l-3.5,17.1h-5.9V101.9z M259.7,153.1v-37.5h10v4.2c2.7-2.9,6.2-4.9,10.8-4.9c4.5,0,8.1,2.3,10.2,6.2c2.9-3.5,7-6.2,12.3-6.2c6.6,0,11.7,5.3,11.7,12.2v26h-10.4v-22.5c0-5.2-2.6-6.2-4.8-6.2c-2.6,0-5.2,1.2-7.2,3.1v25.6h-10.4v-22.5c0-5.2-2.6-6.2-4.8-6.2c-2.8,0-5.3,1.4-7.4,3.5v25.2H259.7zM549.3,101.9h21.6c14.1,0,20.1,7.8,20.1,17.4c0,7.6-3.8,13.3-12.3,15.4l12.3,18.4h-11.7l-11.1-17.5H560v17.5h-10.7V101.9zM560,126.9h10.5c6.9,0,9-3.5,9-7.6c0-4.3-2.2-7.7-9-7.7H560V126.9z M613,115c11.1,0,18.4,7.2,19.3,19.5c0.1,1.1,0.1,3,0.1,4.1h-27.4c1,3.5,4.5,6.6,9,6.6c3.9,0,7.3-2.3,8.9-4.9l7.9,3.9c-3.4,5.7-9,9.6-16.9,9.6c-12.7,0-19.9-8.7-19.9-19.5C593.9,123.8,602.7,115,613,115z M621.5,131.2c-0.4-3.9-3.4-7.6-8.1-7.6c-4.9,0-7.8,3.5-8.7,7.6H621.5z M648.6,101.9v9.8h-10.1v-9.8H648.6z M638.6,115.6h10v37.5h-10V115.6z M668.1,153.8c-4.2,0-8.6-1-12.4-2.2v-9c3.1,1.1,8.1,2.6,12.6,2.6c4.5,0,6.6-1.4,6.6-3.1c0-4.7-20-2.2-20-15.7c0-7.2,7.3-11.5,15.3-11.5c6.5,0,10.2,1.3,12.4,2.3v8.6c-2.3-1.1-6.4-2.6-10.9-2.6c-3.5,0-6.5,1.2-6.5,3.5c0,4.5,19.9,2,19.9,14.8C685.1,149.8,678.4,153.8,668.1,153.8z" fill="#334155"/>
      <path d="M342.8,102.4h19.7c13.4,0,19.1,7.5,19.1,16.6c0,9.2-5.7,16.9-19.1,16.9h-9.6V151h-10.1V102.4z M352.9,111.6v15.1h9.2c6.5,0,8.6-3.7,8.6-7.7c0-4-2.1-7.4-8.6-7.4H352.9z M402.2,114.7c10.5,0,17.5,6.9,18.3,18.5c0.1,1.1,0.1,2.9,0.1,3.9h-26c0.9,3.4,4.3,6.3,8.5,6.3c3.7,0,6.9-2.1,8.4-4.6l7.5,3.7c-3.2,5.4-8.5,9.1-16,9.1c-12.1,0-18.9-8.3-18.9-18.5C384.1,123.1,392.5,114.7,402.2,114.7z M410.4,130.2c-0.4-3.7-3.2-7.2-7.7-7.2c-4.6,0-7.4,3.3-8.2,7.2H410.4z M424.6,133.1c0-10,6.5-18.4,16.4-18.4c4.6,0,7.8,1.9,10,4.4v-16.7h9.5V151H451v-3.6c-2.2,2.5-5.4,4.3-10,4.3C431.1,151.6,424.6,143.3,424.6,133.1z M434.4,133.1c0,4.7,2.4,9.6,8,9.6c3.5,0,7.1-2.6,8.6-5.2v-8.8c-1.5-2.6-5.1-5.1-8.6-5.1C436.8,123.6,434.4,128.3,434.4,133.1z M477.9,115.4v4.5c2.5-3.1,5.9-4.9,10.1-4.9c1.4,0,2.6,0.1,3.8,0.5v9.2c-1.1-0.3-2.3-0.4-3.5-0.4c-4.4,0-8.3,2-10.4,5.4V151h-9.5v-35.6H477.9z M513.1,114.7c10,0,18.4,8.4,18.4,18.4c0,10.3-8.4,18.6-18.4,18.6c-10.2,0-18.5-8.3-18.5-18.6C494.6,123.1,502.9,114.7,513.1,114.7z M513.2,143.2c5.8,0,8.4-5.3,8.4-10.1c0-4.6-2.6-9.9-8.4-9.9c-5.9,0-8.8,5.2-8.8,9.9C504.4,137.9,507.2,143.2,513.2,143.2z" fill="#55BDB3"/>
    </g>
    
<!--#endregion-->   
  </g>
  
<!--#region defs-->
  
  <defs>
    <linearGradient id="paint0_linear_1_2" x1="448" y1="0" x2="448" y2="288" gradientUnits="userSpaceOnUse">
      <stop stop-color="#FAFAE9"/>
      <stop offset="1" stop-color="#e2e8f0" stop-opacity="0"/>
    </linearGradient>
    <linearGradient id="paint1_linear_1_2" x1="448" y1="0" x2="448" y2="288" gradientUnits="userSpaceOnUse">
      <stop/>
      <stop offset="1" stop-opacity="0"/>
    </linearGradient>
    <clipPath id="clip0_1_2">
      <path d="M0 32C0 14.3269 14.3269 0 32 0H864C881.673 0 896 14.3269 896 32V288H0V32Z" fill="white"/>
    </clipPath>
  </defs>
  
<!--#endregion-->
</svg>
